<mxfile host="app.diagrams.net" modified="2024-03-18T01:04:26.030Z" agent="Mozilla/5.0 (Windows NT 10.0; Win64; x64) AppleWebKit/537.36 (KHTML, like Gecko) Chrome/122.0.0.0 Safari/537.36 Edg/122.0.0.0" etag="Xj_ASjpE3NEaCon6bdLZ" version="24.0.7" type="github">
  <diagram name="PÃ¡gina-1" id="vNj4sjb0fkm9tPx7zj-2">
    <mxGraphModel dx="1310" dy="843" grid="1" gridSize="10" guides="1" tooltips="1" connect="1" arrows="1" fold="1" page="1" pageScale="1" pageWidth="827" pageHeight="1169" math="0" shadow="0">
      <root>
        <mxCell id="0" />
        <mxCell id="1" parent="0" />
        <mxCell id="qyNe_QU3GzyRXudW4q_P-30" value="" style="edgeStyle=orthogonalEdgeStyle;rounded=0;orthogonalLoop=1;jettySize=auto;html=1;" edge="1" parent="1" source="qyNe_QU3GzyRXudW4q_P-1" target="qyNe_QU3GzyRXudW4q_P-3">
          <mxGeometry relative="1" as="geometry" />
        </mxCell>
        <mxCell id="qyNe_QU3GzyRXudW4q_P-1" value="" style="shape=cylinder3;whiteSpace=wrap;html=1;boundedLbl=1;backgroundOutline=1;size=15;" vertex="1" parent="1">
          <mxGeometry x="255" y="210" width="60" height="50" as="geometry" />
        </mxCell>
        <mxCell id="qyNe_QU3GzyRXudW4q_P-31" value="" style="edgeStyle=orthogonalEdgeStyle;rounded=0;orthogonalLoop=1;jettySize=auto;html=1;" edge="1" parent="1" source="qyNe_QU3GzyRXudW4q_P-2" target="qyNe_QU3GzyRXudW4q_P-22">
          <mxGeometry relative="1" as="geometry" />
        </mxCell>
        <mxCell id="qyNe_QU3GzyRXudW4q_P-2" value="" style="shape=cylinder3;whiteSpace=wrap;html=1;boundedLbl=1;backgroundOutline=1;size=15;" vertex="1" parent="1">
          <mxGeometry x="492.5" y="210" width="60" height="50" as="geometry" />
        </mxCell>
        <mxCell id="qyNe_QU3GzyRXudW4q_P-14" value="" style="rounded=0;orthogonalLoop=1;jettySize=auto;html=1;exitX=0.4;exitY=0.997;exitDx=0;exitDy=0;exitPerimeter=0;entryX=0;entryY=0;entryDx=35;entryDy=0;entryPerimeter=0;" edge="1" parent="1" source="qyNe_QU3GzyRXudW4q_P-3" target="qyNe_QU3GzyRXudW4q_P-6">
          <mxGeometry relative="1" as="geometry" />
        </mxCell>
        <mxCell id="qyNe_QU3GzyRXudW4q_P-3" value="" style="shape=cube;whiteSpace=wrap;html=1;boundedLbl=1;backgroundOutline=1;darkOpacity=0.05;darkOpacity2=0.1;" vertex="1" parent="1">
          <mxGeometry x="240" y="330" width="90" height="50" as="geometry" />
        </mxCell>
        <mxCell id="qyNe_QU3GzyRXudW4q_P-27" value="" style="edgeStyle=orthogonalEdgeStyle;rounded=0;orthogonalLoop=1;jettySize=auto;html=1;" edge="1" parent="1" source="qyNe_QU3GzyRXudW4q_P-5" target="qyNe_QU3GzyRXudW4q_P-11">
          <mxGeometry relative="1" as="geometry" />
        </mxCell>
        <mxCell id="qyNe_QU3GzyRXudW4q_P-5" value="" style="shape=cube;whiteSpace=wrap;html=1;boundedLbl=1;backgroundOutline=1;darkOpacity=0.05;darkOpacity2=0.1;" vertex="1" parent="1">
          <mxGeometry x="300" y="460" width="90" height="50" as="geometry" />
        </mxCell>
        <mxCell id="qyNe_QU3GzyRXudW4q_P-26" value="" style="edgeStyle=orthogonalEdgeStyle;rounded=0;orthogonalLoop=1;jettySize=auto;html=1;" edge="1" parent="1" source="qyNe_QU3GzyRXudW4q_P-6" target="qyNe_QU3GzyRXudW4q_P-9">
          <mxGeometry relative="1" as="geometry" />
        </mxCell>
        <mxCell id="qyNe_QU3GzyRXudW4q_P-6" value="" style="shape=cube;whiteSpace=wrap;html=1;boundedLbl=1;backgroundOutline=1;darkOpacity=0.05;darkOpacity2=0.1;" vertex="1" parent="1">
          <mxGeometry x="185" y="460" width="90" height="50" as="geometry" />
        </mxCell>
        <mxCell id="qyNe_QU3GzyRXudW4q_P-9" value="" style="fontColor=#0066CC;verticalAlign=top;verticalLabelPosition=bottom;labelPosition=center;align=center;html=1;outlineConnect=0;fillColor=#CCCCCC;strokeColor=#6881B3;gradientColor=none;gradientDirection=north;strokeWidth=2;shape=mxgraph.networks.monitor;" vertex="1" parent="1">
          <mxGeometry x="190" y="580" width="80" height="65" as="geometry" />
        </mxCell>
        <mxCell id="qyNe_QU3GzyRXudW4q_P-11" value="" style="fontColor=#0066CC;verticalAlign=top;verticalLabelPosition=bottom;labelPosition=center;align=center;html=1;outlineConnect=0;fillColor=#CCCCCC;strokeColor=#6881B3;gradientColor=none;gradientDirection=north;strokeWidth=2;shape=mxgraph.networks.monitor;" vertex="1" parent="1">
          <mxGeometry x="305" y="580" width="80" height="65" as="geometry" />
        </mxCell>
        <mxCell id="qyNe_QU3GzyRXudW4q_P-12" value="" style="fontColor=#0066CC;verticalAlign=top;verticalLabelPosition=bottom;labelPosition=center;align=center;html=1;outlineConnect=0;fillColor=#CCCCCC;strokeColor=#6881B3;gradientColor=none;gradientDirection=north;strokeWidth=2;shape=mxgraph.networks.monitor;" vertex="1" parent="1">
          <mxGeometry x="427.5" y="580" width="80" height="65" as="geometry" />
        </mxCell>
        <mxCell id="qyNe_QU3GzyRXudW4q_P-13" value="" style="fontColor=#0066CC;verticalAlign=top;verticalLabelPosition=bottom;labelPosition=center;align=center;html=1;outlineConnect=0;fillColor=#CCCCCC;strokeColor=#6881B3;gradientColor=none;gradientDirection=north;strokeWidth=2;shape=mxgraph.networks.monitor;" vertex="1" parent="1">
          <mxGeometry x="542.5" y="580" width="80" height="65" as="geometry" />
        </mxCell>
        <mxCell id="qyNe_QU3GzyRXudW4q_P-15" style="rounded=0;orthogonalLoop=1;jettySize=auto;html=1;entryX=0;entryY=0;entryDx=35;entryDy=0;entryPerimeter=0;" edge="1" parent="1" source="qyNe_QU3GzyRXudW4q_P-3" target="qyNe_QU3GzyRXudW4q_P-5">
          <mxGeometry relative="1" as="geometry" />
        </mxCell>
        <mxCell id="qyNe_QU3GzyRXudW4q_P-21" value="" style="rounded=0;orthogonalLoop=1;jettySize=auto;html=1;exitX=0.4;exitY=0.997;exitDx=0;exitDy=0;exitPerimeter=0;entryX=0;entryY=0;entryDx=35;entryDy=0;entryPerimeter=0;" edge="1" source="qyNe_QU3GzyRXudW4q_P-22" target="qyNe_QU3GzyRXudW4q_P-24" parent="1">
          <mxGeometry relative="1" as="geometry" />
        </mxCell>
        <mxCell id="qyNe_QU3GzyRXudW4q_P-22" value="" style="shape=cube;whiteSpace=wrap;html=1;boundedLbl=1;backgroundOutline=1;darkOpacity=0.05;darkOpacity2=0.1;" vertex="1" parent="1">
          <mxGeometry x="477.5" y="330" width="90" height="50" as="geometry" />
        </mxCell>
        <mxCell id="qyNe_QU3GzyRXudW4q_P-29" value="" style="edgeStyle=orthogonalEdgeStyle;rounded=0;orthogonalLoop=1;jettySize=auto;html=1;" edge="1" parent="1" source="qyNe_QU3GzyRXudW4q_P-23" target="qyNe_QU3GzyRXudW4q_P-13">
          <mxGeometry relative="1" as="geometry" />
        </mxCell>
        <mxCell id="qyNe_QU3GzyRXudW4q_P-23" value="" style="shape=cube;whiteSpace=wrap;html=1;boundedLbl=1;backgroundOutline=1;darkOpacity=0.05;darkOpacity2=0.1;" vertex="1" parent="1">
          <mxGeometry x="537.5" y="460" width="90" height="50" as="geometry" />
        </mxCell>
        <mxCell id="qyNe_QU3GzyRXudW4q_P-28" value="" style="edgeStyle=orthogonalEdgeStyle;rounded=0;orthogonalLoop=1;jettySize=auto;html=1;" edge="1" parent="1" source="qyNe_QU3GzyRXudW4q_P-24" target="qyNe_QU3GzyRXudW4q_P-12">
          <mxGeometry relative="1" as="geometry" />
        </mxCell>
        <mxCell id="qyNe_QU3GzyRXudW4q_P-24" value="" style="shape=cube;whiteSpace=wrap;html=1;boundedLbl=1;backgroundOutline=1;darkOpacity=0.05;darkOpacity2=0.1;" vertex="1" parent="1">
          <mxGeometry x="422.5" y="460" width="90" height="50" as="geometry" />
        </mxCell>
        <mxCell id="qyNe_QU3GzyRXudW4q_P-25" style="rounded=0;orthogonalLoop=1;jettySize=auto;html=1;entryX=0;entryY=0;entryDx=35;entryDy=0;entryPerimeter=0;" edge="1" source="qyNe_QU3GzyRXudW4q_P-22" target="qyNe_QU3GzyRXudW4q_P-23" parent="1">
          <mxGeometry relative="1" as="geometry" />
        </mxCell>
        <mxCell id="qyNe_QU3GzyRXudW4q_P-32" style="rounded=0;orthogonalLoop=1;jettySize=auto;html=1;entryX=0.23;entryY=-0.031;entryDx=0;entryDy=0;entryPerimeter=0;exitX=1.001;exitY=0.736;exitDx=0;exitDy=0;exitPerimeter=0;" edge="1" parent="1" source="qyNe_QU3GzyRXudW4q_P-3" target="qyNe_QU3GzyRXudW4q_P-24">
          <mxGeometry relative="1" as="geometry" />
        </mxCell>
        <mxCell id="qyNe_QU3GzyRXudW4q_P-33" style="rounded=0;orthogonalLoop=1;jettySize=auto;html=1;entryX=0.577;entryY=-0.062;entryDx=0;entryDy=0;entryPerimeter=0;exitX=0;exitY=0;exitDx=10;exitDy=40;exitPerimeter=0;" edge="1" parent="1" source="qyNe_QU3GzyRXudW4q_P-22" target="qyNe_QU3GzyRXudW4q_P-5">
          <mxGeometry relative="1" as="geometry" />
        </mxCell>
        <mxCell id="qyNe_QU3GzyRXudW4q_P-34" style="edgeStyle=orthogonalEdgeStyle;rounded=0;orthogonalLoop=1;jettySize=auto;html=1;entryX=0.025;entryY=0.496;entryDx=0;entryDy=0;entryPerimeter=0;" edge="1" parent="1" source="qyNe_QU3GzyRXudW4q_P-3" target="qyNe_QU3GzyRXudW4q_P-22">
          <mxGeometry relative="1" as="geometry" />
        </mxCell>
        <mxCell id="qyNe_QU3GzyRXudW4q_P-35" style="edgeStyle=orthogonalEdgeStyle;rounded=0;orthogonalLoop=1;jettySize=auto;html=1;exitX=0;exitY=0;exitDx=0;exitDy=15;exitPerimeter=0;entryX=0.93;entryY=0.294;entryDx=0;entryDy=0;entryPerimeter=0;" edge="1" parent="1" source="qyNe_QU3GzyRXudW4q_P-22" target="qyNe_QU3GzyRXudW4q_P-3">
          <mxGeometry relative="1" as="geometry" />
        </mxCell>
      </root>
    </mxGraphModel>
  </diagram>
</mxfile>
